<svg xmlns="http://www.w3.org/2000/svg" viewBox="0 0 430.4 124.7" fill="#dd6b26" xmlns:v="https://vecta.io/nano"><path d="M46.6 109.9L8.9 93.4V52.5H13v38.2l33.5 14.8 33.2-14.8V18.8H8.9v-4.2h75v78.8l-37.3 16.5h0zm0 9.7L0 99.2v-94h92.7v94l-46.1 20.4zM4.2 96.4L46.6 115l41.9-18.6v-87H4.2v87h0zm61.1-9.2L30.5 60v27.1H18V23.8h57.1v41.5h-16L75 77.6v9.5l-9.7.1zM34 56.9L67.9 83h2.9v-3.3L46.5 61.2h24.4V28H22.1v55h4.2V32.2h40.5V57L34 56.9h0zm-3.5-4.2h32.1V36.3H30.5v16.4h0zm123.6 10.6l5.2-5.3c.2-.3.3-.6.4-.9s.2-.5.2-.8V43.9c0-.3-.1-.7-.1-1l-.3-1-5.2-5.2-1-.3c-.3-.1-.7-.1-1.1-.2h-24.6c-.3 0-.6.1-.8.3s-.3.5-.3.8v37.6c-.1.5.3 1 .9 1.1h.2 7.8c.6 0 1-.4 1.1-.9v-.2-10.6c0-.2.1-.3.3-.3h6.4c.2 0 .3.1.4.2L150 75c.2.3.4.5.7.7s.6.2.9.2h9c.2 0 .5-.1.6-.2.1-.2.1-.5-.1-.7l-7-11.7h0zM149.9 48v7.2h-13.7v-9.7H150l-.1 2.5h0zm47.9-10.7c0-.6-.4-1-.9-1.1h-.2-7.9c-.6 0-1 .4-1.1.9v.2V75c0 .6.4 1 .9 1.1h.2 7.9c.6 0 1-.4 1.1-.9V75 37.3h0zm51.6-.6l-1-.3c-.3-.1-.7-.1-1-.2h-21.7c-.3 0-.6.1-.8.3s-.3.5-.3.8V75c0 .6.4 1 .9 1.1h.2 7.8c.6 0 1-.4 1.1-.9V75v-9.4c0-.3.1-.5.3-.7s.5-.3.8-.3h11.6c.3 0 .7-.1 1-.1l1-.3 5.2-5.2.3-1c.1-.3.1-.7.1-1V44c0-.3-.1-.7-.1-1l-.3-1-5.1-5.3h0zm-15.1 18.6V45.2h11.1v10.1h-11.1zm71.4-19.1h-7.9c-.3 0-.6.1-.8.3s-.3.5-.3.8v28c0 .3-.1.6-.3.8s-.5.3-.8.3h-8.2c-.3 0-.6-.1-.8-.3s-.3-.5-.3-.8v-8.1c0-.3-.1-.6-.3-.8s-.5-.3-.8-.3h-7.9c-.6 0-1.1.5-1.1 1h0v11.1c0 .3 0 .7.1 1s.2.7.4 1l5.2 5.2a1.93 1.93 0 0 0 1 .3c.3.1.7.1 1 .1h15c.4 0 .7 0 1-.1l1-.3 5.2-5.2.3-1c.1-.3.1-.7.1-1v-31c0-.3-.1-.6-.3-.8.1-.1-.2-.2-.5-.2h0zm55.7.4l-1-.3c-.3-.1-.7-.1-1-.1h-18c-.3 0-.7.1-1 .1l-1 .3-5.3 5.2-.3.9c-.1.3-.1.7-.2 1v31.2c0 .3.1.6.3.7.2.2.5.3.8.3h7.9c.3 0 .6-.1.8-.3a1.08 1.08 0 0 0 .3-.7V64.7c0-.3.1-.5.3-.7s.5-.3.8-.3H356c.3 0 .6.1.8.3a1.08 1.08 0 0 1 .3.7v10.2a.94.94 0 0 0 1 1h7.9c.3 0 .6-.1.8-.3a1.08 1.08 0 0 0 .3-.7v-31c0-.4 0-.7-.1-1.1l-.3-1-5.3-5.2h0zm-4.3 18.5h-13.4v-10h13.4v10zm64 8.2l5.2-5.4c.2-.3.3-.6.4-.9s.2-.5.2-.8V43.9c0-.3-.1-.7-.1-1l-.3-1-5.2-5.2-1-.3c-.4-.1-.7-.1-1.1-.2h-24.6c-.3 0-.6.1-.8.3s-.3.5-.3.8v37.6c-.1.5.3 1 .9 1.1h.2 7.9c.6 0 1-.4 1.1-.9v-.2-10.6c0-.1.1-.3.2-.3h.1 6.4c.2 0 .3.1.4.2l6.4 10.8c.2.3.4.5.7.7s.6.2.9.2h9c.2 0 .5-.1.6-.2.1-.2.1-.5-.1-.7l-7.1-11.7h0zM416.8 48v7.2H403v-9.7h13.8V48z"/></svg>